<?xml version="1.0" ?><svg id="Layer_1" style="enable-background:new 0 0 65 65;" version="1.1" viewBox="0 0 65 65" xml:space="preserve" xmlns="http://www.w3.org/2000/svg" xmlns:xlink="http://www.w3.org/1999/xlink"><style type="text/css">
	
</style><g><path class="st0" d="M1.5,54.5c-0.6,0-1,0.4-1,1v8c0,0.6,0.4,1,1,1s1-0.4,1-1v-8C2.5,54.9,2.1,54.5,1.5,54.5z"/><path class="st0" d="M1.5,48.5c-0.6,0-1,0.4-1,1v2c0,0.6,0.4,1,1,1s1-0.4,1-1v-2C2.5,48.9,2.1,48.5,1.5,48.5z"/><path class="st0" d="M39.5,2.5h12c0.6,0,1-0.4,1-1s-0.4-1-1-1h-12c-0.6,0-1,0.4-1,1S38.9,2.5,39.5,2.5z"/><path class="st0" d="M55.5,2.5h2c0.6,0,1-0.4,1-1s-0.4-1-1-1h-2c-0.6,0-1,0.4-1,1S54.9,2.5,55.5,2.5z"/><path class="st0" d="M58.5,22.5c0,0.6,0.4,1,1,1h1v1c0,0.6,0.4,1,1,1s1-0.4,1-1v-1h1c0.6,0,1-0.4,1-1s-0.4-1-1-1h-1v-1   c0-0.6-0.4-1-1-1s-1,0.4-1,1v1h-1C58.9,21.5,58.5,21.9,58.5,22.5z"/><path class="st0" d="M13.5,4.5h1v1c0,0.6,0.4,1,1,1s1-0.4,1-1v-1h1c0.6,0,1-0.4,1-1s-0.4-1-1-1h-1v-1c0-0.6-0.4-1-1-1s-1,0.4-1,1v1   h-1c-0.6,0-1,0.4-1,1S12.9,4.5,13.5,4.5z"/><polygon class="st0" points="52.2,29.5 48.2,33.5 64.5,33.5 64.5,29.5  "/><polygon class="st0" points="16.8,39.5 0.5,39.5 0.5,43.5 12.8,43.5  "/><polygon class="st0" points="38.2,43.5 64.5,43.5 64.5,39.5 42.2,39.5  "/><polygon class="st0" points="28.2,53.5 64.5,53.5 64.5,49.5 32.2,49.5  "/><polygon class="st0" points="46.8,9.5 19.5,9.5 19.5,13.5 42.8,13.5  "/><rect class="st0" height="4" width="11" x="0.5" y="9.5"/><rect class="st0" height="4" width="22" x="0.5" y="19.5"/><polygon class="st0" points="28.5,19.5 28.5,23.5 32.8,23.5 36.8,19.5  "/><polygon class="st0" points="26.8,29.5 0.5,29.5 0.5,33.5 22.8,33.5  "/><polygon class="st0" points="18.2,63.5 46.5,63.5 46.5,59.5 22.2,59.5  "/><rect class="st0" height="4" width="10" x="54.5" y="59.5"/><rect class="st0" height="4" transform="matrix(0.7071 -0.7071 0.7071 0.7071 -14.7049 31.8426)" width="50" x="6.1" y="31.7"/><path class="st0" d="M14.1,54.9c-0.1-0.1-0.2-0.2-0.2-0.3l-2.9-2.9l-0.7,2.1l4.9,4.9l2.1-0.7l-2.9-2.9C14.3,55.1,14.2,55,14.1,54.9   z"/><rect class="st0" height="4" transform="matrix(0.7071 -0.7071 0.7071 0.7071 -16.4621 36.0853)" width="50" x="10.3" y="35.9"/><polygon class="st0" points="7.8,61.2 13.1,59.5 9.5,55.9  "/><path class="st0" d="M48.8,13.2l3.3,3.3c0.1,0,0.2,0.1,0.3,0.2s0.2,0.2,0.2,0.3l3.3,3.3l3.5-3.5c0.8-0.8,0.8-2,0-2.8l-4.2-4.2   c-0.8-0.8-2-0.8-2.8,0L48.8,13.2z"/></g></svg>