<svg id="Layer_1" version="1.1" viewBox="0 0 65 65" xml:space="preserve" xmlns="http://www.w3.org/2000/svg"><style/><path class="st0" d="M1.5 54.5c-.6 0-1 .4-1 1v8c0 .6.4 1 1 1s1-.4 1-1v-8c0-.6-.4-1-1-1zm0-6c-.6 0-1 .4-1 1v2c0 .6.4 1 1 1s1-.4 1-1v-2c0-.6-.4-1-1-1zm38-46h12c.6 0 1-.4 1-1s-.4-1-1-1h-12c-.6 0-1 .4-1 1s.4 1 1 1zm16 0h2c.6 0 1-.4 1-1s-.4-1-1-1h-2c-.6 0-1 .4-1 1s.4 1 1 1zm3 20c0 .6.4 1 1 1h1v1c0 .6.4 1 1 1s1-.4 1-1v-1h1c.6 0 1-.4 1-1s-.4-1-1-1h-1v-1c0-.6-.4-1-1-1s-1 .4-1 1v1h-1c-.6 0-1 .4-1 1zm-45-18h1v1c0 .6.4 1 1 1s1-.4 1-1v-1h1c.6 0 1-.4 1-1s-.4-1-1-1h-1v-1c0-.6-.4-1-1-1s-1 .4-1 1v1h-1c-.6 0-1 .4-1 1s.4 1 1 1zm38.7 25l-4 4h16.3v-4zm-35.4 10H.5v4h12.3zm21.4 4h26.3v-4H42.2zm-10 10h36.3v-4H32.2zm18.6-44H19.5v4h23.3zM.5 9.5h11v4H.5zm0 10h22v4H.5zm28 0v4h4.3l4-4zm-1.7 10H.5v4h22.3zm-8.6 34h28.3v-4H22.2zm36.3-4h10v4h-10z"/><path class="st0" transform="rotate(-45.001 31.085 33.672)" d="M6.1 31.7h50v4h-50z"/><path class="st0" d="M14.1 54.9c-.1-.1-.2-.2-.2-.3L11 51.7l-.7 2.1 4.9 4.9 2.1-.7-2.9-2.9c-.1 0-.2-.1-.3-.2z"/><path class="st0" transform="rotate(-45.001 35.327 37.915)" d="M10.3 35.9h50v4h-50z"/><path class="st0" d="M7.8 61.2l5.3-1.7-3.6-3.6zm41-48l3.3 3.3c.1 0 .2.1.3.2s.2.2.2.3l3.3 3.3 3.5-3.5c.8-.8.8-2 0-2.8l-4.2-4.2c-.8-.8-2-.8-2.8 0l-3.6 3.4z"/></svg>